<svg width="390" height="397" viewBox="0 0 390 397" fill="none" xmlns="http://www.w3.org/2000/svg">
<g clip-path="url(#clip0_1279_682)">
<path d="M390 0H0V397H390V0Z" fill="white"/>
<path d="M195 53C214.416 53 232.981 56.4993 250.052 62.873C236.001 58.3816 220.701 56 204.5 56C128.285 56 61 108.68 61 186C61 263.32 122.785 326 199 326C275.215 326 337 263.32 337 186C337 152.373 326.352 123.409 308.051 101.409C332.264 127.27 347 161.481 347 199C347 279.634 278.947 345 195 345C111.053 345 43 279.634 43 199C43 118.366 111.053 53 195 53Z" fill="#052E61"/>
<path d="M199.5 62.5898C209.076 62.5899 218.408 63.6117 227.392 65.5498C220.967 64.5298 214.314 64 207.463 64C141.465 64 82.1906 113.046 82.1904 178.139C82.1904 243.231 135.692 296 201.69 296C267.688 296 321.19 243.231 321.19 178.139C321.19 151.937 313.455 128.336 299.909 109.486C318.094 131.402 329 159.383 329 189.868C329 260.162 271.021 317.145 199.5 317.146C127.979 317.146 70.0002 260.162 70 189.868C70 119.574 127.979 62.5898 199.5 62.5898Z" fill="#052E61"/>
<path d="M206.273 130C219.109 130 223.089 158.584 230.09 181.554C236.646 203.061 241.726 219.013 252.261 235.15C264.106 253.294 270 259 278 264.5C240 293.681 212.291 292.181 212.291 292.181C212.291 292.181 164.5 301 118 258C118 258 123.556 257.124 142.083 237.242C157.718 220.463 170.159 195.493 175.83 181.554C188.22 151.097 188.186 130 206.273 130Z" fill="#052E61"/>
<path d="M206.273 130C219.108 130 223.089 158.584 230.09 181.554C236.646 203.061 241.726 219.013 252.261 235.149C264.106 253.294 270 259 278 264.5C240.071 293.627 212.394 292.186 212.291 292.181C212.291 292.181 164.5 301 118 258C118.026 257.996 123.6 257.077 142.083 237.241C157.718 220.462 170.16 195.493 175.83 181.554C188.22 151.097 188.186 130 206.273 130ZM162.084 152C169.352 152 172.39 163.333 173 169C159.099 216.882 126.681 246.069 111 255.5C111 255.5 106.818 250.01 104.5 247C102.696 244.657 100.011 240.018 100 240C104.979 237.169 112.497 232.134 119 224.5C130.5 211 137.708 196.218 141.535 186.807C149.898 166.244 149.876 152 162.084 152ZM130.877 165C137.274 165 140.463 178.154 141 183.189C128.431 215.733 111.21 231.879 99.0001 238.57C98.9822 238.541 97.069 235.457 96.0001 233.5C94.9333 231.546 93.5188 228.539 93.5001 228.499C102.431 218.455 109.512 204.063 112.788 195.931C120.15 177.657 120.13 165 130.877 165ZM100.128 177C106.892 177.001 110.932 189.715 111.5 195C111.5 195 106.326 206.019 102.174 213.5C99.7802 217.813 95.8477 223.081 92.8429 226.891C92.8298 226.861 89.6356 219.543 88.0001 214.5C86.2972 209.25 84.2985 200.506 84.297 200.5C89.0866 186.269 90.6358 177 100.128 177Z" fill="url(#paint0_linear_1279_682)"/>
<path d="M204.5 136L203.5 287" stroke="white" stroke-width="3" stroke-dasharray="7 10"/>
<path d="M277.5 120.5L278 107C278 101.427 279.925 94.2451 283.5 91C290.5 86 304.728 85.2201 311 85C299.439 85.4056 287.709 83.6913 283 79C275.693 71.7206 276.608 59.3851 276 53C275 68.5 272.731 75.7748 271 78C268.667 81 263 81.918 258 82.5C182.4 91.3 133.167 139.167 118 162C163.2 108.4 241.475 91 264 91C266.273 91 269.715 91.5919 272 94C275.231 97.4056 275 103.455 275 107L274.5 121L277.5 120.5Z" fill="#052E61"/>
<circle cx="275.639" cy="126.074" r="8.07407" fill="#052E61"/>
<circle cx="251.921" cy="142.727" r="6.56018" fill="#052E61"/>
<circle cx="295.319" cy="158.875" r="6.56018" fill="#052E61"/>
<circle cx="264.537" cy="179.565" r="8.07407" fill="#052E61"/>
<circle cx="288.255" cy="207.319" r="6.56018" fill="#052E61"/>
<circle cx="309.954" cy="187.639" r="5.0463" fill="#052E61"/>
<path d="M264.546 225.454C264.546 228.241 262.287 230.5 259.5 230.5C256.713 230.5 254.454 228.241 254.454 225.454C254.454 222.667 256.713 220.407 259.5 220.407C262.287 220.407 264.546 222.667 264.546 225.454Z" fill="#052E61"/>
<path d="M226.314 173.745C227.214 173.652 228.082 173.359 228.854 172.889C229.627 172.418 230.285 171.781 230.781 171.025C231.277 170.268 231.598 169.41 231.721 168.514C231.844 167.618 231.765 166.705 231.492 165.843C231.218 164.981 230.756 164.191 230.138 163.529C229.521 162.868 228.764 162.353 227.922 162.021C227.081 161.689 226.176 161.548 225.273 161.609C224.371 161.671 223.493 161.932 222.705 162.375L225.686 167.686L226.314 173.745Z" fill="#052E61"/>
<path d="M251.921 142.727L275.639 126.074L293.806 158.875L251.921 142.727Z" stroke="#052E61" stroke-width="3"/>
<path d="M294.31 161.398L309.954 189.658L287.75 205.806L260 225L264.537 179.565M264.537 179.565L227 167L251.921 143.736L264.537 179.565Z" stroke="#052E61" stroke-width="3"/>
<path d="M264.537 180.069L292.796 158.875L287.245 204.796L264.537 180.069Z" stroke="#052E61" stroke-width="3"/>
<path d="M264.032 179.565L233 207" stroke="#052E61" stroke-width="3" stroke-linecap="round"/>
</g>
<defs>
<linearGradient id="paint0_linear_1279_682" x1="209.663" y1="211" x2="134.361" y2="251.431" gradientUnits="userSpaceOnUse">
<stop stop-color="#052E61"/>
<stop offset="1" stop-color="#0A5EC7"/>
</linearGradient>
<clipPath id="clip0_1279_682">
<rect width="390" height="397" fill="white"/>
</clipPath>
</defs>
</svg>
